<svg width="34" height="35" viewBox="0 0 34 35" fill="none" xmlns="http://www.w3.org/2000/svg">
<g id="Social icon">
<circle id="Ellipse 3" cx="17" cy="17.6465" r="17" fill="black"/>
<g id="linkedin">
<path d="M9.31776 25.6465H12.8131V14.3309H9.31776V25.6465Z" fill="#B9FF66"/>
<path d="M9 10.7184C9 11.834 9.90031 12.7371 11.0654 12.7371C12.1776 12.7371 13.0779 11.834 13.0779 10.7184C13.0779 9.60273 12.1776 8.64648 11.0654 8.64648C9.90031 8.64648 9 9.60273 9 10.7184Z" fill="#B9FF66"/>
<path d="M22.4517 25.6465H26V19.4309C26 16.4027 25.3115 14.0121 21.7632 14.0121C20.0685 14.0121 18.9034 14.9684 18.4268 15.8715H18.3738V14.3309H15.0374V25.6465H18.5327V20.0684C18.5327 18.5809 18.7975 17.1465 20.6511 17.1465C22.4517 17.1465 22.4517 18.8465 22.4517 20.1215V25.6465Z" fill="#B9FF66"/>
</g>
</g>
</svg>
